<svg width="40" height="40" viewBox="0 0 40 40" fill="none" xmlns="http://www.w3.org/2000/svg">
<path d="M28.3332 30C29.2172 30 30.0651 30.3512 30.6902 30.9764C31.3153 31.6015 31.6665 32.4493 31.6665 33.3334C31.6665 34.2174 31.3153 35.0653 30.6902 35.6904C30.0651 36.3155 29.2172 36.6667 28.3332 36.6667C27.4491 36.6667 26.6013 36.3155 25.9761 35.6904C25.351 35.0653 24.9998 34.2174 24.9998 33.3334C24.9998 31.4834 26.4832 30 28.3332 30ZM1.6665 3.33337H7.1165L8.68317 6.66671H33.3332C33.7752 6.66671 34.1991 6.8423 34.5117 7.15486C34.8242 7.46742 34.9998 7.89135 34.9998 8.33337C34.9998 8.61671 34.9165 8.90004 34.7998 9.16671L28.8332 19.95C28.2665 20.9667 27.1665 21.6667 25.9165 21.6667H13.4998L11.9998 24.3834L11.9498 24.5834C11.9498 24.6939 11.9937 24.7999 12.0719 24.878C12.15 24.9561 12.256 25 12.3665 25H31.6665V28.3334H11.6665C10.7824 28.3334 9.9346 27.9822 9.30948 27.3571C8.68436 26.7319 8.33317 25.8841 8.33317 25C8.33317 24.4167 8.48317 23.8667 8.73317 23.4L10.9998 19.3167L4.99984 6.66671H1.6665V3.33337ZM11.6665 30C12.5506 30 13.3984 30.3512 14.0235 30.9764C14.6486 31.6015 14.9998 32.4493 14.9998 33.3334C14.9998 34.2174 14.6486 35.0653 14.0235 35.6904C13.3984 36.3155 12.5506 36.6667 11.6665 36.6667C10.7824 36.6667 9.9346 36.3155 9.30948 35.6904C8.68436 35.0653 8.33317 34.2174 8.33317 33.3334C8.33317 31.4834 9.8165 30 11.6665 30ZM26.6665 18.3334L31.2998 10H10.2332L14.1665 18.3334H26.6665Z" fill="#CCCCCC"/>
</svg>
